<svg width="806" height="453" viewBox="0 0 806 453" fill="none" xmlns="http://www.w3.org/2000/svg">
<mask id="mask0_118_415" style="mask-type:alpha" maskUnits="userSpaceOnUse" x="0" y="0" width="806" height="453">
<rect width="806" height="453" rx="5" fill="#EBEBEB"/>
</mask>
<g mask="url(#mask0_118_415)">
<rect width="806" height="453" rx="5" fill="#F3F3F3"/>
<path opacity="0.15" d="M1005 -128.977V278C1005 311.137 978.137 338 945 338H217.653C201.956 338 186.884 331.849 175.67 320.866L48.0174 195.842C36.4941 184.556 30 169.106 30 152.977V-254C30 -287.137 56.8629 -314 89.9999 -314H817.347C833.044 -314 848.116 -307.849 859.33 -296.866L986.983 -171.842C998.506 -160.556 1005 -145.106 1005 -128.977Z" stroke="#151515"/>
<path opacity="0.05" d="M205 428.927V660C205 693.137 178.137 720 145 720H-292.597C-308.286 720 -323.352 713.854 -334.565 702.88L-403.968 634.952C-415.5 623.665 -422 608.209 -422 592.073V361C-422 327.863 -395.137 301 -362 301H75.5966C91.2863 301 106.352 307.146 117.565 318.12L186.968 386.048C198.5 397.335 205 412.791 205 428.927Z" fill="#151515"/>
<path opacity="0.3" d="M1413.76 -47.872V359.5C1413.76 392.637 1386.9 419.5 1353.76 419.5H626.631C610.923 419.5 595.843 413.341 584.626 402.344L456.996 277.216C445.486 265.932 439 250.491 439 234.372V-173C439 -206.137 465.863 -233 499 -233H1226.13C1241.84 -233 1256.92 -226.841 1268.14 -215.844L1395.77 -90.7164C1407.28 -79.432 1413.76 -63.991 1413.76 -47.872Z" stroke="#151515"/>
<path opacity="0.15" d="M433.5 417.476V712C433.5 745.413 406.413 772.5 373 772.5H-167.806C-183.65 772.5 -198.862 766.285 -210.172 755.189L-300.367 666.714C-311.965 655.336 -318.5 639.772 -318.5 623.524V329C-318.5 295.587 -291.413 268.5 -258 268.5H282.806C298.65 268.5 313.862 274.715 325.172 285.811L415.367 374.286C426.965 385.664 433.5 401.228 433.5 417.476Z" stroke="#151515"/>
</g>
</svg>
